<svg width="36" height="36" viewBox="0 0 36 36" fill="none" xmlns="http://www.w3.org/2000/svg">
<path fill-rule="evenodd" clip-rule="evenodd" d="M21.425 12.7446C22.2605 12.0853 22.8631 11.1175 22.9953 9.83622C23.2713 7.16036 21.2296 4.89659 18.6264 4.62805C16.0232 4.35952 13.5623 6.15882 13.2863 8.83468C13.1464 10.1904 13.5808 11.3211 14.3359 12.1601C14.2859 12.1852 14.2398 12.2181 14.1993 12.2582L7.15741 19.2451C6.95015 19.4508 6.94718 19.785 7.15077 19.9943L9.60809 22.5205C9.80046 22.7183 10.112 22.7363 10.3259 22.5621L13.5191 19.9612C13.5577 19.9298 13.6156 19.9572 13.6156 20.0071V21.5929C13.6156 21.6356 13.6104 21.6783 13.6002 21.7198L12.8671 24.7067C12.8349 24.8378 12.7541 24.9518 12.641 25.0256L9.77713 26.8944C9.52917 27.0562 9.46086 27.3892 9.6251 27.6356L12.0008 31.1991C12.1593 31.4369 12.4773 31.5071 12.7213 31.3581L18.1336 28.0521C18.2342 27.9906 18.3116 27.8974 18.3536 27.7873L18.6832 26.9218C18.7169 26.8335 18.8355 26.8183 18.8902 26.8954L21.8353 31.0393C21.9894 31.2562 22.28 31.326 22.5158 31.2028L26.902 28.9111C27.1607 28.7759 27.2624 28.4577 27.1299 28.1976L24.1451 22.3375L22.5679 19.9999C22.5386 19.9564 22.5763 19.899 22.6279 19.9087L27.2283 20.7713C27.494 20.8211 27.7548 20.6639 27.8349 20.4057L28.9759 16.7264C29.0669 16.4332 28.8917 16.1241 28.5934 16.0514L24.6351 15.0872C24.5655 15.0702 24.5 15.0394 24.4426 14.9966L21.425 12.7446ZM21.2889 9.66019C21.1179 11.3176 19.557 12.2524 17.8184 12.0731C16.0797 11.8937 14.8218 10.6681 14.9927 9.01071C15.1637 7.35332 16.7117 6.15513 18.4504 6.33448C20.189 6.51383 21.4598 8.00281 21.2889 9.66019ZM9.58128 20.0145L9.80817 20.2142C9.93966 20.3299 10.1359 20.3324 10.2703 20.22L14.753 16.4726C15.0996 16.1828 15.6268 16.4293 15.6268 16.881V20.9798C15.6268 21.146 15.7044 21.3025 15.8365 21.4032L19.1686 23.9433C19.2128 23.977 19.2514 24.0174 19.2831 24.063L22.3972 28.5462C22.5508 28.7673 22.8452 28.839 23.0832 28.7132L24.2776 28.0818C24.533 27.9469 24.6341 27.6329 24.5056 27.3742L22.3705 23.0772L20.3995 20.1923C20.3536 20.1249 20.3236 20.048 20.3121 19.9672L19.5363 14.5366C19.4992 14.277 19.2788 14.0831 19.0166 14.0799C17.4775 14.0614 15.0699 14.0429 15.0057 14.0857C14.9379 14.1309 11.5047 17.5577 9.56362 19.4983C9.4187 19.6432 9.42745 19.8791 9.58128 20.0145ZM12.2301 27.7594L12.9322 28.8376C12.967 28.891 13.0377 28.9073 13.0922 28.8745L16.6538 26.7376C16.6782 26.7229 16.6965 26.7 16.7054 26.673L17.2563 24.9925C17.2723 24.9437 17.2551 24.8902 17.2136 24.86L15.3554 23.5062C15.2874 23.4566 15.1908 23.4919 15.1708 23.5737L14.573 26.0194C14.566 26.0482 14.5484 26.0733 14.5237 26.0898L12.2637 27.5964C12.2097 27.6324 12.1948 27.7051 12.2301 27.7594ZM21.579 15.3321L22.0864 17.8667C22.1011 17.9399 22.1601 17.9961 22.2339 18.0073L26.6597 18.6768C26.7432 18.6895 26.824 18.6415 26.853 18.5622L27.1238 17.8195C27.16 17.7203 27.1021 17.6117 26.9996 17.5864L23.9934 16.8445C23.9684 16.8384 23.945 16.8268 23.9249 16.8107L21.864 15.1587C21.7346 15.0551 21.5464 15.1695 21.579 15.3321Z" fill="white"/>
</svg>
