<svg width="30" height="30" viewBox="0 0 30 30" fill="none" xmlns="http://www.w3.org/2000/svg">
<path d="M18.1031 25.8377C18.5657 26.333 19.3423 26.3596 19.8377 25.8969C20.333 25.4343 20.3596 24.6577 19.8969 24.1623L18.1031 25.8377ZM10 15.3636L9.07337 14.5589C8.66142 15.0333 8.67424 15.7422 9.10308 16.2013L10 15.3636ZM19.9266 5.80471C20.3711 5.29294 20.3165 4.5178 19.8047 4.07337C19.2929 3.62894 18.5178 3.68353 18.0734 4.19529L19.9266 5.80471ZM19.8969 24.1623L10.8969 14.5259L9.10308 16.2013L18.1031 25.8377L19.8969 24.1623ZM10.9266 16.1683L19.9266 5.80471L18.0734 4.19529L9.07337 14.5589L10.9266 16.1683Z" fill="#7C7C7C"/>
</svg>
