<svg width="13" height="24" viewBox="0 0 13 24" fill="none" xmlns="http://www.w3.org/2000/svg">
<path d="M10.1031 22.8377C10.5657 23.333 11.3423 23.3596 11.8377 22.8969C12.333 22.4343 12.3596 21.6577 11.8969 21.1623L10.1031 22.8377ZM2 12.3636L1.07337 11.5589C0.661419 12.0333 0.674241 12.7422 1.10308 13.2013L2 12.3636ZM11.9266 2.80471C12.3711 2.29294 12.3165 1.5178 11.8047 1.07337C11.2929 0.628943 10.5178 0.683529 10.0734 1.19529L11.9266 2.80471ZM11.8969 21.1623L2.89692 11.5259L1.10308 13.2013L10.1031 22.8377L11.8969 21.1623ZM2.92663 13.1683L11.9266 2.80471L10.0734 1.19529L1.07337 11.5589L2.92663 13.1683Z" fill="white"/>
</svg>
