<svg width="30" height="30" viewBox="0 0 30 30" fill="none" xmlns="http://www.w3.org/2000/svg">
<path fill-rule="evenodd" clip-rule="evenodd" d="M21.5303 22.49C21.8008 22.7605 22.2395 22.7605 22.51 22.49C22.7806 22.2194 22.7806 21.7807 22.51 21.5102L16 15.0001L22.5102 8.48995C22.7807 8.21939 22.7807 7.78073 22.5102 7.51017C22.2396 7.23961 21.8009 7.23961 21.5304 7.51017L15.0202 14.0203L8.48983 7.48995C8.21927 7.21939 7.78061 7.21939 7.51005 7.48995C7.23949 7.76051 7.23949 8.19918 7.51005 8.46974L14.0404 15.0001L7.51017 21.5304C7.23961 21.8009 7.23961 22.2396 7.51017 22.5102C7.78073 22.7807 8.2194 22.7807 8.48996 22.5102L15.0202 15.9799L21.5303 22.49Z" fill="#7C7C7C"/>
<path d="M21.5303 22.49L21.1767 22.8435L21.5303 22.49ZM22.51 21.5102L22.1565 21.8637L22.51 21.5102ZM16 15.0001L15.6464 14.6466C15.4512 14.8418 15.4512 15.1584 15.6464 15.3537L16 15.0001ZM22.5102 8.48995L22.8637 8.84351L22.5102 8.48995ZM15.0202 14.0203L14.6667 14.3739C14.7604 14.4677 14.8876 14.5203 15.0202 14.5203C15.1528 14.5203 15.28 14.4677 15.3738 14.3739L15.0202 14.0203ZM8.48983 7.48995L8.84339 7.1364L8.84338 7.1364L8.48983 7.48995ZM7.51005 7.48995L7.15649 7.1364L7.51005 7.48995ZM7.51005 8.46974L7.8636 8.11619L7.8636 8.11619L7.51005 8.46974ZM14.0404 15.0001L14.394 15.3537C14.5892 15.1584 14.5892 14.8418 14.394 14.6466L14.0404 15.0001ZM15.0202 15.9799L15.3738 15.6264C15.28 15.5326 15.1528 15.4799 15.0202 15.4799C14.8876 15.4799 14.7604 15.5326 14.6667 15.6264L15.0202 15.9799ZM22.1565 22.1364C22.0812 22.2117 21.9591 22.2117 21.8838 22.1364L21.1767 22.8435C21.6425 23.3093 22.3978 23.3093 22.8636 22.8435L22.1565 22.1364ZM22.1565 21.8637C22.2318 21.939 22.2318 22.0611 22.1565 22.1364L22.8636 22.8435C23.3294 22.3777 23.3294 21.6224 22.8636 21.1566L22.1565 21.8637ZM15.6464 15.3537L22.1565 21.8637L22.8636 21.1566L16.3536 14.6466L15.6464 15.3537ZM22.1566 8.1364L15.6464 14.6466L16.3536 15.3537L22.8637 8.84351L22.1566 8.1364ZM22.1566 7.86372C22.2319 7.93902 22.2319 8.0611 22.1566 8.1364L22.8637 8.84351C23.3295 8.37769 23.3295 7.62244 22.8637 7.15662L22.1566 7.86372ZM21.8839 7.86372C21.9592 7.78843 22.0813 7.78842 22.1566 7.86372L22.8637 7.15662C22.3979 6.69079 21.6427 6.69079 21.1768 7.15662L21.8839 7.86372ZM15.3738 14.3739L21.8839 7.86372L21.1768 7.15662L14.6667 13.6668L15.3738 14.3739ZM8.13628 7.84351L14.6667 14.3739L15.3738 13.6668L8.84339 7.1364L8.13628 7.84351ZM7.8636 7.84351C7.9389 7.76821 8.06098 7.76821 8.13628 7.84351L8.84338 7.1364C8.37756 6.67058 7.62232 6.67058 7.15649 7.1364L7.8636 7.84351ZM7.8636 8.11619C7.7883 8.04089 7.7883 7.91881 7.8636 7.84351L7.15649 7.1364C6.69067 7.60222 6.69067 8.35747 7.15649 8.82329L7.8636 8.11619ZM14.394 14.6466L7.8636 8.11619L7.15649 8.82329L13.6869 15.3537L14.394 14.6466ZM7.86372 21.8839L14.394 15.3537L13.6869 14.6466L7.15662 21.1768L7.86372 21.8839ZM7.86372 22.1566C7.78843 22.0813 7.78843 21.9592 7.86372 21.8839L7.15662 21.1768C6.69079 21.6427 6.6908 22.3979 7.15662 22.8637L7.86372 22.1566ZM8.1364 22.1566C8.0611 22.2319 7.93902 22.2319 7.86372 22.1566L7.15662 22.8637C7.62244 23.3295 8.37769 23.3295 8.84351 22.8637L8.1364 22.1566ZM14.6667 15.6264L8.1364 22.1566L8.84351 22.8637L15.3738 16.3335L14.6667 15.6264ZM21.8838 22.1364L15.3738 15.6264L14.6667 16.3335L21.1767 22.8435L21.8838 22.1364Z" fill="#7C7C7C"/>
</svg>
