<svg width="30" height="30" viewBox="0 0 30 30" fill="none" xmlns="http://www.w3.org/2000/svg">
<circle cx="15" cy="15" r="7.34276" transform="rotate(-90 15 15)" stroke="#7C7C7C" stroke-width="1.31448"/>
<path d="M12.8713 11.7859C12.5719 11.4865 12.0864 11.4865 11.7869 11.7859C11.4875 12.0854 11.4875 12.5709 11.7869 12.8703L12.8713 11.7859ZM17.3618 18.4452C17.6612 18.7446 18.1467 18.7446 18.4462 18.4452C18.7456 18.1457 18.7456 17.6602 18.4462 17.3608L17.3618 18.4452ZM11.7869 12.8703C12.8755 13.9589 13.7249 14.8083 14.5743 15.6578C15.4238 16.5072 16.2732 17.3566 17.3618 18.4452L18.4462 17.3608C17.3576 16.2722 16.5082 15.4228 15.6587 14.5734C14.8093 13.7239 13.9599 12.8745 12.8713 11.7859L11.7869 12.8703Z" fill="#7C7C7C"/>
<path d="M18.446 12.8703C18.7454 12.5709 18.7454 12.0854 18.446 11.7859C18.1466 11.4865 17.6611 11.4865 17.3616 11.7859L18.446 12.8703ZM11.7867 17.3608C11.4873 17.6602 11.4873 18.1457 11.7867 18.4452C12.0862 18.7446 12.5717 18.7446 12.8711 18.4452L11.7867 17.3608ZM17.3616 11.7859L11.7867 17.3608L12.8711 18.4452L18.446 12.8703L17.3616 11.7859Z" fill="#7C7C7C"/>
</svg>
