<svg width="30" height="30" viewBox="0 0 30 30" fill="none" xmlns="http://www.w3.org/2000/svg">
<path fill-rule="evenodd" clip-rule="evenodd" d="M25 15C25 9.47715 20.5228 5 15 5C9.47715 5 5 9.47715 5 15C5 20.5228 9.47715 25 15 25C20.5228 25 25 20.5228 25 15ZM11.1186 18.0866L14.0611 15.144L11.1194 12.2024C10.82 11.9029 10.82 11.4174 11.1194 11.118C11.4189 10.8185 11.9044 10.8185 12.2038 11.118L15.1455 14.0597L18.0872 11.118C18.3866 10.8185 18.8721 10.8185 19.1716 11.118C19.471 11.4174 19.471 11.9029 19.1716 12.2023L16.2299 15.144L19.1724 18.0866C19.4718 18.386 19.4718 18.8715 19.1724 19.1709C18.873 19.4704 18.3875 19.4704 18.088 19.1709L15.1455 16.2284L12.203 19.1709C11.9036 19.4704 11.4181 19.4704 11.1186 19.1709C10.8192 18.8715 10.8192 18.386 11.1186 18.0866Z" fill="#7C7C7C"/>
</svg>
