<svg width="11" height="13" viewBox="0 0 11 13" fill="none" xmlns="http://www.w3.org/2000/svg">
<path fill-rule="evenodd" clip-rule="evenodd" d="M10.3082 5.28296C10.3082 2.07453 7.86002 0 5.15411 0C2.4482 0 0 2.07453 0 5.28296C0 7.33172 1.57845 9.74127 4.72245 12.518C4.96727 12.7307 5.3345 12.7307 5.57932 12.518C8.72977 9.74127 10.3082 7.33172 10.3082 5.28296ZM5.15401 6.44229C5.86564 6.44229 6.44253 5.8654 6.44253 5.15376C6.44253 4.44213 5.86564 3.86523 5.15401 3.86523C4.44237 3.86523 3.86548 4.44213 3.86548 5.15376C3.86548 5.8654 4.44237 6.44229 5.15401 6.44229Z" fill="#7C7C7C"/>
</svg>
