<svg width="20" height="20" viewBox="0 0 20 20" fill="none" xmlns="http://www.w3.org/2000/svg">
<g clip-path="url(#clip0_537_3759)">
<path fill-rule="evenodd" clip-rule="evenodd" d="M14.1833 12.769C16.1494 10.1195 15.9311 6.35946 13.5283 3.95664C10.8853 1.31365 6.60017 1.31365 3.95718 3.95664C1.3142 6.59962 1.3142 10.8848 3.95718 13.5277C6.35984 15.9304 10.1196 16.1489 12.769 14.1832L16.3579 17.7721C16.7484 18.1626 17.3816 18.1626 17.7721 17.7721C18.1627 17.3816 18.1627 16.7484 17.7721 16.3579L14.1833 12.769ZM12.1141 5.37085C13.976 7.23279 13.976 10.2516 12.1141 12.1135C10.2521 13.9755 7.23333 13.9755 5.3714 12.1135C3.50946 10.2516 3.50946 7.23279 5.3714 5.37085C7.23333 3.50891 10.2521 3.50891 12.1141 5.37085Z" fill="#7C7C7C"/>
</g>
<defs>
<clipPath id="clip0_537_3759">
<rect width="20" height="20" fill="white"/>
</clipPath>
</defs>
</svg>
