<svg width="20" height="20" viewBox="0 0 20 20" fill="none" xmlns="http://www.w3.org/2000/svg">
<path fill-rule="evenodd" clip-rule="evenodd" d="M12.8341 6.55285C13.4044 6.10326 13.8157 5.44313 13.9059 4.56897C14.0941 2.74452 12.702 1.20103 10.9271 1.01794C9.15219 0.834849 7.47432 2.06164 7.28612 3.88609C7.1907 4.81106 7.4873 5.58244 8.00282 6.1546C7.96833 6.17173 7.93648 6.1944 7.90863 6.22202L3.10732 10.9858C2.96601 11.126 2.96399 11.3539 3.10279 11.4966L4.77824 13.219C4.9094 13.3539 5.12184 13.3662 5.26768 13.2474L7.44481 11.4741C7.47116 11.4526 7.51062 11.4714 7.51062 11.5053V12.5866C7.51062 12.6157 7.5071 12.6448 7.50015 12.6731L7.00028 14.7096C6.97833 14.799 6.92323 14.8767 6.84612 14.9271L4.8935 16.2012C4.72443 16.3116 4.67786 16.5386 4.78984 16.7066L6.40961 19.1362C6.51771 19.2984 6.73455 19.3462 6.90086 19.2447L10.5911 16.9905C10.6597 16.9486 10.7124 16.8851 10.7411 16.81L10.9658 16.2199C10.9888 16.1597 11.0696 16.1494 11.107 16.2019L13.115 19.0273C13.2201 19.1752 13.4182 19.2228 13.579 19.1388L16.5696 17.5762C16.746 17.4841 16.8153 17.2671 16.7249 17.0898L14.6898 13.0943L13.6145 11.5004C13.5945 11.4708 13.6202 11.4317 13.6554 11.4382L16.792 12.0264C16.9731 12.0603 17.151 11.9532 17.2056 11.7771L17.9836 9.26849C18.0456 9.06859 17.9261 8.85781 17.7228 8.80828L15.0239 8.15086C14.9765 8.1393 14.9318 8.1183 14.8927 8.08909L12.8341 6.55285ZM12.7424 4.44895C12.6259 5.57898 11.5616 6.21639 10.3762 6.09411C9.19073 5.97182 8.33302 5.13615 8.4496 4.00611C8.56617 2.87608 9.62165 2.05913 10.8071 2.18142C11.9925 2.3037 12.859 3.31891 12.7424 4.44895ZM4.75996 11.5096L4.91465 11.6458C5.00431 11.7247 5.13811 11.7264 5.22974 11.6498L8.28612 9.0947C8.52244 8.89714 8.88193 9.06517 8.88193 9.3732V12.1678C8.88193 12.2811 8.93479 12.3879 9.02486 12.4565L11.2968 14.1884C11.3269 14.2113 11.3532 14.2389 11.3748 14.27L13.4981 17.3267C13.6028 17.4775 13.8036 17.5263 13.9658 17.4405L14.7802 17.0101C14.9543 16.9181 15.0233 16.704 14.9356 16.5276L13.4799 13.5979L12.136 11.6308C12.1047 11.5849 12.0843 11.5324 12.0764 11.4774L11.5475 7.77472C11.5222 7.59774 11.3719 7.46549 11.1931 7.46334C10.1437 7.45072 8.50221 7.43811 8.45843 7.46729C8.41223 7.4981 6.0714 9.83455 4.74792 11.1577C4.64911 11.2565 4.65507 11.4173 4.75996 11.5096ZM6.56601 16.7903L7.04469 17.5254C7.06837 17.5618 7.11658 17.5729 7.15379 17.5506L9.58214 16.0936C9.59876 16.0836 9.61124 16.0679 9.61728 16.0495L9.99296 14.9037C10.0039 14.8705 9.99209 14.834 9.96381 14.8134L8.69688 13.8903C8.65049 13.8565 8.58465 13.8806 8.57102 13.9364L8.1634 15.6039C8.1586 15.6235 8.14661 15.6407 8.12979 15.6519L6.58886 16.6792C6.55207 16.7037 6.54188 16.7532 6.56601 16.7903ZM12.9402 8.31567L13.2862 10.0438C13.2962 10.0938 13.3364 10.1321 13.3868 10.1397L16.4043 10.5962C16.4613 10.6048 16.5164 10.5721 16.5361 10.518L16.7208 10.0117C16.7455 9.94403 16.706 9.86997 16.6361 9.85272L14.5864 9.34691C14.5694 9.34271 14.5534 9.33484 14.5397 9.32385L13.1345 8.1975C13.0463 8.12682 12.918 8.20486 12.9402 8.31567Z" fill="white"/>
</svg>
